<svg xmlns="http://www.w3.org/2000/svg" version="1.1" xmlns:xlink="http://www.w3.org/1999/xlink" xmlns:svgjs="http://svgjs.com/svgjs" width="1440" height="560" preserveAspectRatio="none" viewBox="0 0 1440 560"><g mask="url(&quot;#SvgjsMask1001&quot;)" fill="none"><rect width="1440" height="560" x="0" y="0" fill="#0e2a47"></rect><path d="M694.95 349.1a8.65 8.65 0 1 0 16.05 6.46z" fill="#e73635"></path><path d="M470.08 473.57a52.29 52.29 0 1 0-46.54-93.65z" fill="#037b0b"></path><path d="M116.45 82.09L123.07 82.09L123.07 88.71L116.45 88.71z" stroke="#037b0b"></path><path d="M1225.77 348.45L1243.85 348.45L1243.85 374.26L1225.77 374.26z" fill="#037b0b"></path><path d="M1164.89 114.29 a35.34 35.34 0 1 0 70.68 0 a35.34 35.34 0 1 0 -70.68 0z" stroke="#037b0b"></path><path d="M1029.64 424.69a0.84 0.84 0 1 0 0.26-1.66z" fill="#e73635"></path><path d="M1400.88 123.15L1433.69 123.15L1433.69 155.96L1400.88 155.96z" fill="#e73635"></path><path d="M1231.88 99.89L1238.41 99.89L1238.41 106.42L1231.88 106.42z" fill="#e73635"></path><path d="M1371.28 145.84a1.22 1.22 0 1 0-2.38-0.52z" fill="#037b0b"></path><path d="M699.05 211.55L729.26 211.55L729.26 241.76L699.05 241.76z" fill="#e73635"></path><path d="M897.19 137.04 a50.48 50.48 0 1 0 100.96 0 a50.48 50.48 0 1 0 -100.96 0z" stroke="#037b0b"></path><path d="M1109.77 86.69a22.59 22.59 0 1 0-6.44 44.72z" fill="#037b0b"></path><path d="M1011.95 447.22a39.64 39.64 0 1 0 79.18 4.12z" stroke="#037b0b"></path><path d="M457.49 477.59 a14.12 14.12 0 1 0 28.24 0 a14.12 14.12 0 1 0 -28.24 0z" stroke="#037b0b"></path><path d="M1057.74 442.54 a9.48 9.48 0 1 0 18.96 0 a9.48 9.48 0 1 0 -18.96 0z" fill="#037b0b"></path><path d="M97.83 495.84a10.13 10.13 0 1 0-1.41 20.22z" fill="#037b0b"></path><path d="M906.49 438.2L921.03 438.2L921.03 449.58L906.49 449.58z" stroke="#037b0b"></path><path d="M101.91 127.68L134.78 127.68L134.78 160.55L101.91 160.55z" stroke="#e73635"></path><path d="M355.67 145.28 a15.99 15.99 0 1 0 31.98 0 a15.99 15.99 0 1 0 -31.98 0z" stroke="#e73635"></path><path d="M1368.95 486.73a39.08 39.08 0 1 0-41.76-66.07z" fill="#037b0b"></path><path d="M898.08 201.93a44.15 44.15 0 1 0-77.25-42.78z" fill="#037b0b"></path><path d="M438.67 291.21L481.49 291.21L481.49 334.03L438.67 334.03z" fill="#037b0b"></path><path d="M-18.57 351.1 a23.68 23.68 0 1 0 47.36 0 a23.68 23.68 0 1 0 -47.36 0z" fill="#e73635"></path><path d="M761.27 85.82L798.89 85.82L798.89 123.44L761.27 123.44z" stroke="#037b0b"></path><path d="M131.81 299.33L170.95 299.33L170.95 338.47L131.81 338.47z" stroke="#037b0b"></path><path d="M208.56 289.55 a9.84 9.84 0 1 0 19.68 0 a9.84 9.84 0 1 0 -19.68 0z" stroke="#037b0b"></path><path d="M655.44 147.65a1.06 1.06 0 1 0 2.08 0.36z" fill="#037b0b"></path><path d="M103.22 426.47L111.74 426.47L111.74 454.72L103.22 454.72z" fill="#037b0b"></path><path d="M628.08 269.33L681.78 269.33L681.78 286.07L628.08 286.07z" stroke="#e73635"></path><path d="M750.7 89.08 a9.79 9.79 0 1 0 19.58 0 a9.79 9.79 0 1 0 -19.58 0z" fill="#037b0b"></path><path d="M843.97 83.4L877.42 83.4L877.42 116.27L843.97 116.27z" fill="#037b0b"></path><path d="M706.9 121.87L718.7 121.87L718.7 163.65L706.9 163.65z" fill="#e73635"></path><path d="M1209.8 538.51L1213.22 538.51L1213.22 541.93L1209.8 541.93z" fill="#e73635"></path></g><defs><mask id="SvgjsMask1001"><rect width="1440" height="560" fill="#ffffff"></rect></mask></defs></svg>