<svg xmlns="http://www.w3.org/2000/svg" version="1.1" xmlns:xlink="http://www.w3.org/1999/xlink" xmlns:svgjs="http://svgjs.com/svgjs" width="1200" height="510" preserveAspectRatio="none" viewBox="0 0 1200 510"><g mask="url(&quot;#SvgjsMask1326&quot;)" fill="none"><rect width="1200" height="510" x="0" y="0" fill="rgba(32, 75, 119, 1)"></rect><path d="M553.0659071709212 424.39624205111176L520.9921150644183 331.24718612709324 397.30542723164194 425.9324022488568z" fill="rgba(21, 137, 209, 0.48)" class="triangle-float2"></path><path d="M112.34 254.3 a122.01 122.01 0 1 0 244.02 0 a122.01 122.01 0 1 0 -244.02 0z" fill="rgba(21, 137, 209, 0.48)" class="triangle-float1"></path><path d="M952.1077943829347 144.6789563597352L899.934179720506 72.72402899098023 867.0989301256017 143.1394489839113z" fill="rgba(21, 137, 209, 0.48)" class="triangle-float1"></path><path d="M990.101,145.249C1004.43,145.948,1015.234,133.458,1021.934,120.773C1028.139,109.025,1029.271,95.121,1022.665,83.594C1016.023,72.005,1003.458,65.131,990.101,65.228C976.91,65.323,964.336,72.308,958.342,84.058C952.79,94.943,957.598,107.065,963.227,117.91C969.536,130.066,976.421,144.582,990.101,145.249" fill="rgba(21, 137, 209, 0.48)" class="triangle-float1"></path><path d="M6.44 4.35 a87.25 87.25 0 1 0 174.5 0 a87.25 87.25 0 1 0 -174.5 0z" fill="rgba(21, 137, 209, 0.48)" class="triangle-float1"></path><path d="M612.8715346701362 590.7295507145484L651.0026150257181 457.75067032323363 518.0237346344034 419.6195899676518 479.8926542788214 552.5984703589666z" fill="rgba(21, 137, 209, 0.48)" class="triangle-float3"></path><path d="M144.57983913156187 98.28524818752618L212.25827857888635 45.409056222926374 159.38208661428652-22.269383224398098 91.70364716696207 30.606808740201714z" fill="rgba(21, 137, 209, 0.48)" class="triangle-float1"></path><path d="M316.17433503316624 323.2274241035603L230.78844553190365 191.4699525316461 166.35457600578826 312.65243621408393z" fill="rgba(21, 137, 209, 0.48)" class="triangle-float1"></path><path d="M1055.2916528212372 436.4115430828126L1098.9221712983226 274.19875846545824 956.444728982525 309.7223746082605z" fill="rgba(21, 137, 209, 0.48)" class="triangle-float1"></path><path d="M501.8487328059472 107.24468850981322L574.2307882999116 60.23923206078915 527.2253318508875-12.14282343317528 454.8432763569231 34.862633015848786z" fill="rgba(21, 137, 209, 0.48)" class="triangle-float1"></path><path d="M32.16 198.63 a103.73 103.73 0 1 0 207.46 0 a103.73 103.73 0 1 0 -207.46 0z" fill="rgba(21, 137, 209, 0.48)" class="triangle-float3"></path><path d="M384.1503828512173 229.94364899322508L449.554529404425 358.60950361474886 520.1087523237559 254.00856655080167z" fill="rgba(21, 137, 209, 0.48)" class="triangle-float1"></path></g><defs><mask id="SvgjsMask1326"><rect width="1200" height="510" fill="#ffffff"></rect></mask></defs></svg>