<svg xmlns="http://www.w3.org/2000/svg" version="1.1" xmlns:xlink="http://www.w3.org/1999/xlink" xmlns:svgjs="http://svgjs.com/svgjs" width="1440" height="560" preserveAspectRatio="none" viewBox="0 0 1440 560"><g mask="url(&quot;#SvgjsMask1032&quot;)" fill="none"><rect width="1440" height="560" x="0" y="0" fill="#0e2a47"></rect><path d="M0,394.808C76.617,388.019,154.086,381.986,219.842,342.081C286.605,301.565,345.651,243.321,371.217,169.529C395.859,98.404,357.602,24.059,356.096,-51.199C354.312,-140.37,419.599,-245.573,361.555,-313.29C303.598,-380.905,191.111,-347.592,102.056,-347.572C35.018,-347.557,-26.676,-328.42,-91.96,-313.186C-161.731,-296.905,-238.712,-300.188,-294.364,-255.068C-354.156,-206.592,-383.414,-131.925,-406.215,-58.405C-432.288,25.668,-465.034,115.926,-435.09,198.699C-404.53,283.175,-328.291,346.478,-246.392,383.393C-169.886,417.877,-83.59,402.215,0,394.808" fill="#0c233c"></path><path d="M1440 1255.837C1570.705 1249.896 1614.135 1070.629 1713.328 985.307 1794.452 915.528 1919.201 896.336 1968.413 801.318 2018.176 705.237 1977.784 591.431 1973.3200000000002 483.32 1968.288 361.43899999999996 2015.8899999999999 222.20999999999998 1940.541 126.279 1865.215 30.376999999999953 1720.5 36.64499999999998 1601.51 9.947999999999979 1490.324-14.998000000000047 1372.716-70.31200000000001 1268.365-24.535999999999945 1165.41 20.626999999999953 1153.65 163.69299999999998 1072.843 241.85700000000003 980.066 331.6 792.563 336.88800000000003 764.475 462.874 737.015 586.045 879.617 679.552 952.254 782.746 1011.409 866.787 1076.452 939.348 1150.223 1010.902 1242.885 1100.78 1311.0430000000001 1261.699 1440 1255.837" fill="#103152"></path></g><defs><mask id="SvgjsMask1032"><rect width="1440" height="560" fill="#ffffff"></rect></mask></defs></svg>