<?xml version="1.0" standalone="no"?><svg xmlns="http://www.w3.org/2000/svg" viewBox="0 0 1440 320"><path fill="#0099ff" fill-opacity="0.8" d="M0,128L8,128C16,128,32,128,48,144C64,160,80,192,96,213.3C112,235,128,245,144,229.3C160,213,176,171,192,170.7C208,171,224,213,240,234.7C256,256,272,256,288,234.7C304,213,320,171,336,170.7C352,171,368,213,384,240C400,267,416,277,432,261.3C448,245,464,203,480,197.3C496,192,512,224,528,234.7C544,245,560,235,576,240C592,245,608,267,624,256C640,245,656,203,672,170.7C688,139,704,117,720,138.7C736,160,752,224,768,256C784,288,800,288,816,282.7C832,277,848,267,864,234.7C880,203,896,149,912,133.3C928,117,944,139,960,144C976,149,992,139,1008,149.3C1024,160,1040,192,1056,197.3C1072,203,1088,181,1104,181.3C1120,181,1136,203,1152,181.3C1168,160,1184,96,1200,106.7C1216,117,1232,203,1248,208C1264,213,1280,139,1296,122.7C1312,107,1328,149,1344,186.7C1360,224,1376,256,1392,272C1408,288,1424,288,1432,288L1440,288L1440,320L1432,320C1424,320,1408,320,1392,320C1376,320,1360,320,1344,320C1328,320,1312,320,1296,320C1280,320,1264,320,1248,320C1232,320,1216,320,1200,320C1184,320,1168,320,1152,320C1136,320,1120,320,1104,320C1088,320,1072,320,1056,320C1040,320,1024,320,1008,320C992,320,976,320,960,320C944,320,928,320,912,320C896,320,880,320,864,320C848,320,832,320,816,320C800,320,784,320,768,320C752,320,736,320,720,320C704,320,688,320,672,320C656,320,640,320,624,320C608,320,592,320,576,320C560,320,544,320,528,320C512,320,496,320,480,320C464,320,448,320,432,320C416,320,400,320,384,320C368,320,352,320,336,320C320,320,304,320,288,320C272,320,256,320,240,320C224,320,208,320,192,320C176,320,160,320,144,320C128,320,112,320,96,320C80,320,64,320,48,320C32,320,16,320,8,320L0,320Z"></path></svg>